<svg width="170" height="119" viewBox="0 0 170 119" fill="none" xmlns="http://www.w3.org/2000/svg">
<path d="M105.451 41.56C97.0812 41.56 88.5612 41.22 80.5912 39C72.7712 36.83 65.5912 32.62 59.1912 27.75C55.0012 24.58 51.1912 22.05 45.7512 22.43C40.4293 22.7179 35.34 24.7053 31.2312 28.1C24.3112 34.16 25.3512 45.39 28.1212 53.25C32.2812 65.12 44.9412 73.39 55.7012 78.74C68.1312 84.95 81.7812 88.56 95.4812 90.63C107.481 92.46 122.901 93.78 133.301 85.95C142.851 78.74 145.471 62.3 143.131 51.2C142.563 47.9208 140.817 44.962 138.221 42.88C131.511 37.97 121.501 41.25 113.961 41.41C111.161 41.47 108.311 41.54 105.451 41.56Z" fill="#410093"/>
<path d="M120.051 88.4299H53.5212V44.5899L86.8512 21.6699L120.051 44.5899V88.4299Z" fill="#8DA4EC"/>
<path d="M103.339 15.0331L55.3123 28.0906C53.7987 28.5021 52.9054 30.0627 53.3169 31.5762L64.0132 70.9181C64.4247 72.4316 65.9853 73.325 67.4988 72.9135L115.525 59.8559C117.039 59.4444 117.932 57.8839 117.521 56.3703L106.824 17.0285C106.413 15.5149 104.852 14.6216 103.339 15.0331Z" fill="white" stroke="#8DA4EC" stroke-linecap="round" stroke-linejoin="round"/>
<path d="M120.051 88.6999H53.5212V44.8699L85.1512 64.9299L120.051 44.8699V88.6999Z" fill="#8DA4EC" stroke="white" stroke-linecap="round" stroke-linejoin="round"/>
<path d="M53.5212 88.6999L84.9012 58.6999C85.493 58.1244 86.2858 57.8025 87.1112 57.8025C87.9366 57.8025 88.7295 58.1244 89.3212 58.6999L120.051 88.6999H53.5212Z" fill="#8DA4EC" stroke="white" stroke-linecap="round" stroke-linejoin="round"/>
<path d="M77.2112 49.2999C77.0882 46.9673 77.7679 44.663 79.1372 42.7707C80.5065 40.8783 82.4826 39.5121 84.7366 38.8995C86.9906 38.2869 89.3865 38.4649 91.5252 39.4038C93.664 40.3427 95.4166 41.986 96.4912 44.0599" stroke="#8DA4EC" stroke-linecap="round" stroke-linejoin="round"/>
<path d="M94.2313 32.2699C95.0155 32.2699 95.6513 31.6342 95.6513 30.8499C95.6513 30.0657 95.0155 29.4299 94.2313 29.4299C93.447 29.4299 92.8113 30.0657 92.8113 30.8499C92.8113 31.6342 93.447 32.2699 94.2313 32.2699Z" fill="#8DA4EC"/>
<path d="M72.4713 38.1899C73.2555 38.1899 73.8913 37.5541 73.8913 36.7699C73.8913 35.9856 73.2555 35.3499 72.4713 35.3499C71.687 35.3499 71.0513 35.9856 71.0513 36.7699C71.0513 37.5541 71.687 38.1899 72.4713 38.1899Z" fill="#8DA4EC"/>
<path d="M118.821 30.16C119.363 30.16 119.801 29.7212 119.801 29.18C119.801 28.6387 119.363 28.2 118.821 28.2C118.28 28.2 117.841 28.6387 117.841 29.18C117.841 29.7212 118.28 30.16 118.821 30.16Z" fill="#410093"/>
<path d="M48.4912 80.2999C49.0325 80.2999 49.4712 79.8611 49.4712 79.3198C49.4712 78.7786 49.0325 78.3398 48.4912 78.3398C47.95 78.3398 47.5112 78.7786 47.5112 79.3198C47.5112 79.8611 47.95 80.2999 48.4912 80.2999Z" fill="#410093"/>
<path d="M135.221 28.7V33.0099" stroke="#410093" stroke-linecap="round" stroke-linejoin="round"/>
<path d="M133.071 30.8599H137.371" stroke="#410093" stroke-linecap="round" stroke-linejoin="round"/>
<path d="M129.401 96.0198V100.32" stroke="#410093" stroke-linecap="round" stroke-linejoin="round"/>
<path d="M127.251 98.1699H131.551" stroke="#410093" stroke-linecap="round" stroke-linejoin="round"/>
<path d="M46.9211 7V11.3" stroke="#410093" stroke-linecap="round" stroke-linejoin="round"/>
<path d="M44.7712 9.1499H49.0712" stroke="#410093" stroke-linecap="round" stroke-linejoin="round"/>
<path d="M85.3714 110.09C105.646 110.09 122.081 109.065 122.081 107.8C122.081 106.535 105.646 105.51 85.3714 105.51C65.097 105.51 48.6614 106.535 48.6614 107.8C48.6614 109.065 65.097 110.09 85.3714 110.09Z" fill="#C6C6C6"/>
</svg>
